<svg width="16" height="16" viewBox="0 0 16 16" fill="none" xmlns="http://www.w3.org/2000/svg">
<path fill-rule="evenodd" clip-rule="evenodd" d="M10.28 9.21974C10.573 9.51274 10.573 9.98724 10.28 10.2802C10.1335 10.4267 9.94151 10.5002 9.74951 10.5002C9.55801 10.5002 9.36601 10.4267 9.21951 10.2802L7.47051 8.53124C7.40051 8.46124 7.34451 8.37774 7.30651 8.28474C7.30501 8.28124 7.30451 8.27774 7.30301 8.27374C7.26951 8.18874 7.24951 8.09674 7.24951 8.00024V4.50024C7.24951 4.08574 7.58551 3.75024 7.99951 3.75024C8.41401 3.75024 8.74951 4.08574 8.74951 4.50024V7.68924L10.28 9.21974ZM7.99951 13.5002C4.96701 13.5002 2.49951 11.0327 2.49951 8.00024C2.49951 4.96724 4.96701 2.50024 7.99951 2.50024C11.0325 2.50024 13.4995 4.96724 13.4995 8.00024C13.4995 11.0327 11.0325 13.5002 7.99951 13.5002ZM7.99951 1.00024C4.13401 1.00024 0.999512 4.13424 0.999512 8.00024C0.999512 11.8662 4.13401 15.0002 7.99951 15.0002C11.866 15.0002 14.9995 11.8662 14.9995 8.00024C14.9995 4.13424 11.866 1.00024 7.99951 1.00024Z" fill="#001823"/>
<mask id="mask0_1055_482" style="mask-type:luminance" maskUnits="userSpaceOnUse" x="0" y="1" width="15" height="15">
<path fill-rule="evenodd" clip-rule="evenodd" d="M10.28 9.21974C10.573 9.51274 10.573 9.98724 10.28 10.2802C10.1335 10.4267 9.94151 10.5002 9.74951 10.5002C9.55801 10.5002 9.36601 10.4267 9.21951 10.2802L7.47051 8.53124C7.40051 8.46124 7.34451 8.37774 7.30651 8.28474C7.30501 8.28124 7.30451 8.27774 7.30301 8.27374C7.26951 8.18874 7.24951 8.09674 7.24951 8.00024V4.50024C7.24951 4.08574 7.58551 3.75024 7.99951 3.75024C8.41401 3.75024 8.74951 4.08574 8.74951 4.50024V7.68924L10.28 9.21974ZM7.99951 13.5002C4.96701 13.5002 2.49951 11.0327 2.49951 8.00024C2.49951 4.96724 4.96701 2.50024 7.99951 2.50024C11.0325 2.50024 13.4995 4.96724 13.4995 8.00024C13.4995 11.0327 11.0325 13.5002 7.99951 13.5002ZM7.99951 1.00024C4.13401 1.00024 0.999512 4.13424 0.999512 8.00024C0.999512 11.8662 4.13401 15.0002 7.99951 15.0002C11.866 15.0002 14.9995 11.8662 14.9995 8.00024C14.9995 4.13424 11.866 1.00024 7.99951 1.00024Z" fill="white"/>
</mask>
<g mask="url(#mask0_1055_482)">
</g>
</svg>
