<svg width="16" height="16" viewBox="0 0 16 16" fill="none" xmlns="http://www.w3.org/2000/svg">
<path fill-rule="evenodd" clip-rule="evenodd" d="M8 5.61953C6.94352 5.61953 6.08696 6.47611 6.08696 7.5326C6.08696 8.58909 6.94352 9.44567 8 9.44567C9.05648 9.44567 9.91304 8.58909 9.91304 7.5326C9.91304 6.47611 9.05648 5.61953 8 5.61953ZM8.00023 7.05444C8.26376 7.05444 8.47849 7.26919 8.47849 7.53271C8.47849 7.79624 8.26376 8.01098 8.00023 8.01098C7.73671 8.01098 7.52197 7.79624 7.52197 7.53271C7.52197 7.26919 7.73671 7.05444 8.00023 7.05444ZM8 2C4.96257 2 2.5 4.4626 2.5 7.50008C2.5 11.4998 8 14.5 8 14.5C8 14.5 13.5 11.4998 13.5 7.50008C13.5 4.4626 11.0374 2 8 2ZM7.99979 3.43481C10.2414 3.43481 12.065 5.25845 12.065 7.50009C12.065 9.69629 9.5527 11.8059 7.99979 12.8237C6.44592 11.805 3.93457 9.69581 3.93457 7.50009C3.93457 5.25845 5.75818 3.43481 7.99979 3.43481Z" fill="#001823"/>
<mask id="mask0_1026_20029" style="mask-type:luminance" maskUnits="userSpaceOnUse" x="2" y="2" width="12" height="13">
<path fill-rule="evenodd" clip-rule="evenodd" d="M8 5.61953C6.94352 5.61953 6.08696 6.47611 6.08696 7.5326C6.08696 8.58909 6.94352 9.44567 8 9.44567C9.05648 9.44567 9.91304 8.58909 9.91304 7.5326C9.91304 6.47611 9.05648 5.61953 8 5.61953ZM8.00023 7.05444C8.26376 7.05444 8.47849 7.26919 8.47849 7.53271C8.47849 7.79624 8.26376 8.01098 8.00023 8.01098C7.73671 8.01098 7.52197 7.79624 7.52197 7.53271C7.52197 7.26919 7.73671 7.05444 8.00023 7.05444ZM8 2C4.96257 2 2.5 4.4626 2.5 7.50008C2.5 11.4998 8 14.5 8 14.5C8 14.5 13.5 11.4998 13.5 7.50008C13.5 4.4626 11.0374 2 8 2ZM7.99979 3.43481C10.2414 3.43481 12.065 5.25845 12.065 7.50009C12.065 9.69629 9.5527 11.8059 7.99979 12.8237C6.44592 11.805 3.93457 9.69581 3.93457 7.50009C3.93457 5.25845 5.75818 3.43481 7.99979 3.43481Z" fill="white"/>
</mask>
<g mask="url(#mask0_1026_20029)">
</g>
</svg>
